<svg viewBox="0 0 120 24" fill="none" xmlns="http://www.w3.org/2000/svg">
  <path
    d="M12.448 2.038l2.398 4.858a1.5 1.5 0 001.13.82l5.36.78a.5.5 0 01.277.852l-3.88 3.781a1.5 1.5 0 00-.43 1.328l.915 5.339a.5.5 0 01-.725.527l-4.795-2.52a1.5 1.5 0 00-1.396 0l-4.795 2.52a.5.5 0 01-.725-.527l.916-5.34a1.5 1.5 0 00-.432-1.327L2.387 9.35a.5.5 0 01.277-.854l5.36-.779a1.5 1.5 0 001.13-.82l2.398-4.858a.5.5 0 01.896 0zM60.448 2.038l2.398 4.858a1.5 1.5 0 001.13.82l5.36.78a.5.5 0 01.277.852l-3.88 3.781a1.5 1.5 0 00-.43 1.328l.915 5.339a.5.5 0 01-.725.527l-4.795-2.52a1.5 1.5 0 00-1.396 0l-4.795 2.52a.5.5 0 01-.725-.527l.916-5.34a1.5 1.5 0 00-.432-1.327l-3.879-3.78a.5.5 0 01.277-.854l5.36-.779a1.5 1.5 0 001.13-.82l2.398-4.858a.5.5 0 01.896 0zM84.448 2.038l2.398 4.858a1.5 1.5 0 001.13.82l5.36.78a.5.5 0 01.277.852l-3.88 3.781a1.5 1.5 0 00-.43 1.328l.915 5.339a.5.5 0 01-.725.527l-4.795-2.52a1.5 1.5 0 00-1.396 0l-4.795 2.52a.5.5 0 01-.725-.527l.916-5.34a1.5 1.5 0 00-.432-1.327l-3.879-3.78a.5.5 0 01.277-.854l5.36-.779a1.5 1.5 0 001.13-.82l2.398-4.858a.5.5 0 01.896 0zM108.448 2.038l2.398 4.858a1.5 1.5 0 001.129.82l5.361.78a.5.5 0 01.277.852l-3.879 3.781a1.5 1.5 0 00-.432 1.328l.916 5.339a.5.5 0 01-.725.527l-4.795-2.52a1.5 1.5 0 00-1.396 0l-4.795 2.52a.5.5 0 01-.725-.527l.916-5.34a1.5 1.5 0 00-.432-1.327l-3.879-3.78a.5.5 0 01.277-.854l5.361-.779a1.5 1.5 0 001.129-.82l2.398-4.858a.5.5 0 01.896 0zM36.448 2.038l2.398 4.858a1.5 1.5 0 001.13.82l5.36.78a.5.5 0 01.277.852l-3.88 3.781a1.5 1.5 0 00-.43 1.328l.915 5.339a.5.5 0 01-.725.527l-4.795-2.52a1.5 1.5 0 00-1.396 0l-4.795 2.52a.5.5 0 01-.725-.527l.916-5.34a1.5 1.5 0 00-.432-1.327l-3.879-3.78a.5.5 0 01.277-.854l5.36-.779a1.5 1.5 0 001.13-.82l2.398-4.858a.5.5 0 01.896 0z"
    fill="#FFAF47" stroke="#FFAF47" />
</svg>