<?xml version="1.0" standalone="no"?>
<!DOCTYPE svg PUBLIC "-//W3C//DTD SVG 20010904//EN"
 "http://www.w3.org/TR/2001/REC-SVG-20010904/DTD/svg10.dtd">
<svg version="1.0" xmlns="http://www.w3.org/2000/svg"
 width="200.000000pt" height="200.000000pt" viewBox="0 0 200.000000 200.000000"
 preserveAspectRatio="xMidYMid meet">

<g transform="translate(0.000000,200.000000) scale(0.100000,-0.100000)"
fill="#000000" stroke="none">
<path d="M568 1124 c3 -20 8 -31 12 -25 3 7 13 -20 20 -59 14 -75 24 -79 34
-15 4 25 3 35 -2 27 -6 -9 -13 6 -21 47 -9 47 -16 61 -29 61 -15 0 -17 -7 -14
-36z"/>
<path d="M656 1152 c-3 -5 0 -41 6 -82 8 -54 8 -78 -1 -92 -10 -16 -8 -18 15
-18 20 0 25 4 20 16 -3 9 -6 54 -6 100 0 66 -3 84 -14 84 -8 0 -17 -4 -20 -8z"/>
<path d="M1349 1075 c2 -58 -1 -90 -9 -100 -10 -13 -8 -15 12 -15 24 0 25 2
20 51 -6 63 10 60 27 -6 7 -28 17 -45 26 -45 18 0 18 -3 -1 53 -9 26 -20 47
-26 47 -6 0 -8 10 -5 23 6 22 6 22 -9 2 -15 -19 -16 -17 -12 28 2 37 0 47 -12
47 -12 0 -14 -14 -11 -85z"/>
<path d="M1408 1135 c-3 -14 -4 -25 -3 -25 2 0 10 11 19 25 13 20 14 25 2 25
-7 0 -16 -11 -18 -25z"/>
<path d="M641 1084 c0 -11 3 -14 6 -6 3 7 2 16 -1 19 -3 4 -6 -2 -5 -13z"/>
<path d="M730 1081 c-5 -11 -10 -34 -10 -51 0 -44 17 -70 44 -70 24 0 46 34
46 70 0 22 -20 70 -29 70 -3 0 -4 -25 -3 -56 4 -59 -10 -92 -28 -64 -13 20
-13 77 0 101 7 12 7 19 1 19 -6 0 -15 -9 -21 -19z"/>
<path d="M837 1093 c-15 -14 -6 -63 13 -75 11 -7 20 -21 20 -30 0 -22 -27 -24
-33 -3 -4 11 -4 10 -3 -2 2 -24 37 -29 53 -7 18 24 17 28 -13 63 -14 17 -23
38 -20 46 5 15 -5 20 -17 8z"/>
<path d="M877 1080 c3 -11 7 -20 9 -20 2 0 4 9 4 20 0 11 -4 20 -9 20 -5 0 -7
-9 -4 -20z"/>
<path d="M929 1084 c-7 -9 -14 -33 -14 -54 0 -21 7 -45 14 -54 15 -17 46 -22
55 -7 4 5 -3 7 -14 4 -24 -6 -35 29 -27 88 6 44 5 46 -14 23z"/>
<path d="M967 1075 c3 -14 -1 -32 -8 -41 -12 -14 -11 -16 6 -13 15 3 20 12 20
38 0 19 -5 36 -11 38 -7 2 -10 -6 -7 -22z"/>
<path d="M1022 1088 c-18 -18 -15 -33 14 -67 15 -19 24 -38 20 -47 -4 -10 -1
-14 6 -12 23 8 20 48 -6 78 -14 17 -23 37 -20 45 7 18 2 19 -14 3z"/>
<path d="M1057 1081 c3 -12 10 -21 15 -21 13 0 6 32 -9 37 -7 3 -9 -3 -6 -16z"/>
<path d="M558 987 c-4 -19 -1 -27 8 -27 15 0 16 6 5 35 -7 17 -8 17 -13 -8z"/>
<path d="M1012 983 c2 -9 8 -18 15 -20 7 -3 9 3 6 16 -6 25 -26 28 -21 4z"/>
</g>
</svg>
