<?xml version="1.0" standalone="no"?>
<!DOCTYPE svg PUBLIC "-//W3C//DTD SVG 20010904//EN"
 "http://www.w3.org/TR/2001/REC-SVG-20010904/DTD/svg10.dtd">
<svg version="1.0" xmlns="http://www.w3.org/2000/svg"
 width="1112.000000pt" height="564.000000pt" viewBox="0 0 1112.000000 564.000000"
 preserveAspectRatio="xMidYMid meet">

<g transform="translate(0.000000,564.000000) scale(0.100000,-0.100000)"
fill="#000000" stroke="none">
<path d="M1060 5167 l0 -144 150 -6 c124 -6 164 -11 231 -33 123 -41 197 -111
242 -231 22 -57 22 -67 25 -710 l3 -653 -456 0 c-448 0 -455 0 -455 -20 0 -20
7 -20 1728 -20 951 0 1731 3 1735 6 3 3 3 12 0 20 -4 12 -81 14 -473 14 l-469
0 -19 53 c-11 28 -167 460 -347 960 l-328 907 -784 0 -783 0 0 -143z m1324
-1080 c135 -372 246 -682 246 -687 0 -7 -85 -9 -247 -8 l-248 3 -3 689 c-1
379 0 687 2 685 3 -2 115 -309 250 -682z"/>
<path d="M5455 5293 c-3 -10 -157 -439 -342 -953 -184 -514 -338 -938 -342
-942 -3 -4 -107 -8 -230 -9 -134 0 -218 -5 -210 -10 11 -7 11 -9 -3 -9 -9 0
-19 -4 -22 -8 -2 -4 4 -8 15 -8 10 0 19 4 19 8 0 4 5 8 11 8 5 0 7 -4 4 -10
-4 -7 90 -10 274 -10 233 0 282 2 294 15 13 13 17 13 28 -1 17 -20 196 -16
191 4 -2 9 5 12 20 8 13 -3 18 -3 11 0 -8 3 -5 22 11 62 13 31 126 345 252
697 l229 639 3 -689 c1 -459 -1 -691 -8 -693 -6 -2 -7 -9 -4 -14 5 -7 2 -8 -7
-2 -8 4 -23 10 -34 11 -16 3 -17 1 -5 -7 13 -8 13 -10 -2 -10 -9 0 -20 -4 -23
-10 -4 -6 4 -6 22 1 19 7 29 7 31 0 2 -7 37 -11 87 -11 73 0 86 3 95 19 13 26
52 24 44 -1 -5 -16 1 -18 45 -18 42 0 51 3 51 18 0 14 -2 15 -10 2 -8 -13 -10
-12 -10 3 0 12 8 17 30 17 33 0 43 -26 13 -33 -10 -2 -1 -4 20 -4 20 -1 37 3
37 8 0 5 5 9 11 9 5 0 7 -4 4 -10 -3 -5 -1 -10 6 -10 6 0 9 8 7 18 -4 13 1 18
17 18 16 0 21 -5 17 -18 -4 -16 3 -18 52 -18 36 0 55 4 51 10 -3 6 1 10 9 10
9 0 16 5 16 10 0 6 7 10 15 10 8 0 15 -6 15 -12 0 -9 4 -8 10 2 5 8 10 10 10
4 0 -19 -13 -24 -28 -11 -11 8 -14 8 -9 0 4 -6 1 -13 -5 -16 -7 -2 37 -4 97
-3 91 1 110 4 110 16 0 11 -15 16 -55 20 l-55 5 -3 565 c-3 593 2 708 38 804
26 68 80 139 131 172 37 23 41 24 69 9 45 -23 97 -80 125 -135 53 -105 55
-124 55 -797 l0 -623 -129 0 c-84 0 -132 -4 -137 -11 -4 -8 -9 -7 -15 2 -7 11
-9 11 -9 -2 0 -9 7 -20 16 -23 8 -3 12 -2 9 4 -3 6 -1 10 4 10 6 0 11 -4 11
-10 0 -7 585 -10 1734 -10 1646 0 1734 1 1732 18 -3 16 -43 17 -664 20 -364 1
-662 5 -662 10 0 8 794 902 1003 1129 142 154 273 275 381 352 116 83 267 141
363 141 l43 0 0 145 0 145 -760 0 -760 0 0 -140 c0 -77 3 -140 8 -141 233 -15
301 -40 322 -118 19 -72 -28 -226 -108 -351 -89 -140 -138 -199 -621 -753
l-365 -417 -350 2 -351 3 0 620 c0 553 2 627 17 682 62 226 187 306 501 320
l137 6 0 144 0 143 -1319 0 c-1247 0 -1319 -1 -1326 -17z m-473 -1910 c-6 -2
-9 -9 -6 -15 4 -6 1 -9 -6 -6 -24 8 -23 28 2 27 13 0 17 -3 10 -6z m825 -8 c0
-8 -4 -15 -9 -15 -4 0 -8 7 -8 15 0 8 4 15 8 15 5 0 9 -7 9 -15z"/>
<path d="M5201 3381 c-32 -20 2 -32 87 -30 48 1 81 4 75 6 -7 3 -13 11 -13 19
0 11 -16 14 -67 14 -38 0 -74 -4 -82 -9z"/>
<path d="M5364 3378 c-4 -7 -3 -8 5 -4 6 4 23 1 36 -8 31 -20 61 -20 69 0 3 8
11 12 17 8 8 -5 8 -8 0 -14 -7 -4 9 -8 34 -8 29 -2 44 2 40 8 -3 5 -1 10 6 10
18 0 2 13 -20 17 -11 1 -22 -4 -25 -13 -5 -14 -7 -14 -22 0 -21 22 -88 22 -80
1 5 -14 4 -14 -16 0 -27 18 -35 19 -44 3z"/>
<path d="M5836 3365 c-3 -8 -1 -15 4 -15 6 0 10 7 10 15 0 8 -2 15 -4 15 -2 0
-6 -7 -10 -15z"/>
<path d="M1624 3146 c-123 -57 -180 -219 -140 -400 32 -140 121 -216 255 -216
99 0 137 15 196 73 64 65 86 129 86 248 0 118 -23 182 -86 244 -58 58 -102 75
-196 75 -46 0 -78 -7 -115 -24z m223 -42 c16 -11 39 -42 53 -70 23 -45 25 -60
25 -189 0 -131 -2 -143 -25 -185 -14 -24 -41 -55 -60 -68 -30 -21 -44 -23
-104 -20 -65 4 -70 6 -106 45 -50 53 -64 104 -64 233 0 153 24 215 98 262 41
26 143 21 183 -8z"/>
<path d="M2290 3148 c-75 -39 -103 -102 -81 -184 15 -57 64 -102 156 -144 108
-50 135 -79 135 -140 0 -60 -26 -96 -82 -111 -82 -22 -147 16 -162 95 -8 42
-29 47 -52 11 -30 -46 3 -109 69 -134 16 -6 60 -11 99 -11 122 0 195 52 206
145 10 94 -23 137 -158 205 -115 57 -140 84 -140 147 0 36 6 50 29 74 28 27
52 34 106 30 29 -3 75 -57 75 -87 0 -20 4 -25 16 -20 9 3 20 6 25 6 17 0 27
44 17 72 -23 64 -170 90 -258 46z"/>
<path d="M3460 3148 c-75 -39 -103 -102 -81 -185 16 -58 62 -100 156 -144 109
-50 135 -77 135 -141 0 -41 -5 -54 -28 -78 -37 -36 -106 -49 -149 -27 -39 20
-48 33 -64 85 -13 46 -27 52 -54 22 -22 -25 -14 -78 18 -108 33 -31 71 -42
149 -42 146 0 227 81 204 204 -11 56 -51 93 -156 146 -113 57 -140 85 -140
145 0 72 62 121 134 108 33 -7 76 -57 76 -89 0 -22 3 -24 23 -19 32 10 40 20
40 50 0 82 -158 126 -263 73z"/>
<path d="M550 3146 c0 -9 12 -16 32 -18 54 -5 58 -25 58 -283 0 -254 -3 -267
-60 -280 -17 -4 -30 -13 -30 -21 0 -11 20 -14 100 -14 82 0 100 3 100 15 0 8
-11 17 -24 21 -16 4 -29 17 -35 36 -13 38 -15 506 -2 493 5 -6 54 -134 109
-285 83 -229 103 -276 120 -278 23 -4 15 -24 143 338 l84 235 3 -250 c1 -137
0 -256 -3 -263 -2 -7 -19 -18 -35 -24 -59 -20 -28 -33 88 -36 95 -2 112 0 112
12 0 9 -12 19 -27 22 -51 13 -52 21 -53 285 0 226 1 247 18 262 10 10 28 17
40 17 13 0 22 6 22 15 0 12 -17 15 -94 15 l-94 0 -77 -217 c-94 -262 -104
-288 -110 -281 -3 3 -45 115 -94 249 l-88 244 -102 3 c-83 2 -101 0 -101 -12z"/>
<path d="M2730 3145 c0 -10 10 -15 29 -15 57 0 61 -18 61 -280 0 -259 -3 -272
-60 -285 -17 -4 -30 -13 -30 -21 0 -12 38 -14 234 -14 l234 0 6 23 c3 12 6 46
6 75 0 43 -3 52 -18 52 -12 0 -22 -14 -32 -42 -20 -57 -45 -68 -162 -68 l-98
0 0 140 0 140 110 0 c91 0 110 3 110 15 0 12 -19 15 -110 15 l-110 0 0 126 0
126 94 -4 c107 -4 131 -17 142 -74 4 -24 12 -34 25 -34 17 0 19 8 19 70 l0 70
-225 0 c-193 0 -225 -2 -225 -15z"/>
<path d="M4030 3130 c0 -15 7 -20 24 -20 54 0 56 -11 56 -270 0 -259 -2 -270
-56 -270 -17 0 -24 -5 -24 -20 0 -19 7 -20 145 -20 138 0 145 1 145 20 0 15
-7 20 -24 20 -46 0 -56 23 -56 123 0 83 2 94 21 105 12 7 22 12 24 10 1 -2 32
-52 68 -113 36 -60 74 -118 85 -128 18 -17 107 -37 165 -37 40 0 36 32 -7 52
-26 13 -55 51 -130 168 l-97 153 33 36 c101 111 146 152 175 162 22 7 33 17
33 30 0 18 -8 19 -115 19 -106 0 -115 -1 -115 -19 0 -12 9 -21 25 -25 18 -5
25 -13 25 -30 0 -26 -26 -61 -123 -166 l-67 -72 0 120 c0 131 8 152 56 152 17
0 24 5 24 20 0 19 -7 20 -145 20 -138 0 -145 -1 -145 -20z"/>
<path d="M4875 2878 c-91 -249 -103 -274 -132 -293 -18 -11 -32 -28 -33 -37 0
-16 12 -18 110 -18 103 0 110 1 110 20 0 14 -7 20 -23 20 -13 0 -32 6 -42 14
-18 13 -18 19 -8 58 6 23 16 55 22 71 l11 27 105 0 106 0 15 -37 c36 -84 27
-133 -22 -133 -17 0 -24 -6 -24 -20 0 -19 7 -20 140 -20 127 0 140 2 140 18 0
9 -15 24 -33 32 -31 14 -36 27 -131 293 l-99 277 -56 0 -56 0 -100 -272z m171
41 c19 -58 34 -113 34 -122 0 -15 -13 -17 -85 -17 -68 0 -85 3 -85 15 0 8 18
65 40 127 53 150 52 147 58 123 2 -11 19 -68 38 -126z"/>
<path d="M5440 3130 c0 -15 7 -20 24 -20 50 0 56 -26 56 -245 0 -188 1 -203
23 -245 32 -63 78 -84 194 -88 112 -5 168 16 205 76 22 35 23 48 26 257 2 134
8 225 14 232 6 7 23 13 39 13 22 0 29 5 29 20 0 19 -7 20 -110 20 -103 0 -110
-1 -110 -20 0 -15 7 -20 24 -20 53 0 56 -14 56 -231 0 -232 -7 -260 -67 -285
-59 -25 -130 -14 -165 25 l-28 31 0 218 c0 235 2 242 52 242 21 0 28 5 28 20
0 19 -7 20 -145 20 -138 0 -145 -1 -145 -20z"/>
<path d="M6160 3130 c0 -15 7 -20 24 -20 54 0 56 -11 56 -270 0 -259 -2 -270
-56 -270 -17 0 -24 -5 -24 -20 0 -19 7 -20 105 -20 97 0 105 1 105 19 0 13 -9
21 -30 26 -19 4 -32 14 -35 28 -3 12 -4 121 -3 241 l3 219 91 -264 c86 -250
92 -264 117 -267 26 -3 27 0 112 259 47 145 88 265 90 268 3 2 5 -103 5 -233
l0 -238 -30 -11 c-18 -7 -30 -19 -30 -29 0 -16 12 -18 135 -18 128 0 135 1
135 20 0 15 -7 20 -24 20 -54 0 -56 11 -56 270 0 259 2 270 56 270 17 0 24 5
24 20 0 19 -7 20 -119 20 l-119 0 -67 -202 c-37 -112 -70 -206 -74 -210 -3 -4
-38 86 -77 200 l-72 207 -121 3 c-116 2 -121 2 -121 -18z"/>
<path d="M7195 2878 c-91 -249 -103 -274 -132 -293 -18 -11 -32 -28 -33 -37 0
-16 12 -18 110 -18 103 0 110 1 110 20 0 14 -7 20 -23 20 -13 0 -32 6 -42 14
-18 13 -18 19 -8 58 6 23 16 55 22 71 l11 27 105 0 105 0 16 -37 c36 -85 28
-133 -22 -133 -17 0 -24 -6 -24 -20 0 -19 7 -20 140 -20 127 0 140 2 140 18 0
9 -15 24 -33 32 -31 14 -36 27 -131 293 l-99 277 -56 0 -56 0 -100 -272z m171
41 c19 -58 34 -113 34 -122 0 -15 -13 -17 -85 -17 -67 0 -85 3 -85 14 0 8 18
65 40 128 54 151 52 147 58 123 2 -11 19 -68 38 -126z"/>
<path d="M7750 3070 c0 -78 1 -80 24 -80 20 0 24 6 30 39 9 57 27 71 92 71
l54 0 0 -255 c0 -241 -1 -255 -19 -265 -11 -5 -29 -10 -40 -10 -14 0 -21 -6
-21 -20 0 -19 7 -20 145 -20 137 0 145 1 145 19 0 14 -8 21 -27 23 -48 5 -53
30 -53 291 l0 237 53 0 c67 0 92 -18 101 -70 5 -34 10 -40 31 -40 25 0 25 1
25 80 l0 80 -270 0 -270 0 0 -80z"/>
<path d="M8380 3130 c0 -15 7 -20 29 -20 16 0 33 -6 39 -12 6 -8 12 -101 14
-223 5 -242 11 -267 79 -312 40 -26 49 -28 153 -28 127 0 160 12 195 75 18 33
21 56 23 252 3 235 6 248 59 248 22 0 29 5 29 20 0 19 -7 20 -110 20 -103 0
-110 -1 -110 -20 0 -14 7 -20 23 -20 51 -1 52 -5 55 -217 4 -229 -5 -270 -62
-297 -68 -32 -160 -11 -187 42 -9 19 -14 85 -16 222 -4 216 1 243 50 248 19 2
27 9 27 23 0 18 -8 19 -145 19 -138 0 -145 -1 -145 -20z"/>
<path d="M9110 3131 c0 -14 8 -21 27 -23 48 -5 53 -32 53 -268 0 -236 -5 -263
-53 -268 -19 -2 -27 -9 -27 -23 0 -18 10 -19 250 -19 l250 0 0 95 c0 87 -2 95
-19 95 -15 0 -22 -12 -31 -51 -20 -81 -33 -89 -145 -89 l-95 0 0 253 c0 272 1
277 52 277 21 0 28 5 28 20 0 19 -7 20 -145 20 -137 0 -145 -1 -145 -19z"/>
<path d="M9740 3130 c0 -15 7 -20 24 -20 54 0 56 -11 56 -270 0 -259 -2 -270
-56 -270 -17 0 -24 -5 -24 -20 0 -19 7 -20 250 -20 l250 0 0 64 c0 35 3 71 6
80 5 12 -1 16 -24 16 -26 0 -30 -4 -35 -36 -11 -65 -27 -74 -139 -74 l-98 0 0
125 0 125 105 0 105 0 0 25 0 25 -105 0 -105 0 0 110 0 110 89 0 c100 0 110
-5 118 -70 5 -37 8 -40 36 -40 29 0 29 1 23 38 -3 20 -6 56 -6 80 l0 42 -235
0 c-228 0 -235 -1 -235 -20z"/>
<path d="M700 2215 l0 -25 505 0 505 0 0 -565 c0 -377 -4 -582 -11 -617 -26
-123 -98 -216 -206 -265 -68 -31 -206 -53 -335 -53 l-98 0 0 -145 0 -145 795
0 795 0 0 143 0 144 -97 6 c-246 16 -342 82 -399 272 -16 54 -18 121 -21 643
l-4 582 473 0 473 0 325 -895 325 -895 186 0 187 0 56 158 c31 86 175 488 319
892 l264 735 56 5 c31 3 62 11 69 18 6 6 17 12 23 12 5 0 3 -5 -5 -11 -12 -9
-11 -10 7 -6 13 3 26 1 29 -4 3 -5 40 -9 84 -9 63 0 79 3 84 17 4 9 1 20 -6
25 -21 13 -96 9 -133 -6 -19 -8 -35 -11 -35 -7 0 13 -14 14 -310 18 -261 3
-286 2 -297 -14 -7 -9 -13 -12 -13 -5 0 6 -11 11 -24 10 -16 -2 -22 -7 -18
-16 4 -11 6 -11 12 -1 6 9 12 8 25 -4 9 -10 25 -17 37 -17 11 0 18 -4 16 -9
-113 -322 -284 -791 -288 -791 -4 0 -280 751 -288 787 -3 10 37 13 211 13 204
0 215 1 220 19 3 11 2 22 -1 25 -3 4 -790 6 -1749 6 l-1743 0 0 -25z"/>
<path d="M5156 2225 c-11 -11 -16 -12 -16 -4 0 7 -3 9 -7 5 -16 -16 32 -36 86
-36 61 0 77 7 76 30 0 23 -117 27 -139 5z"/>
<path d="M5385 2230 c-4 -6 -10 -8 -14 -6 -4 3 -8 -1 -8 -9 0 -22 27 -27 53
-10 13 8 31 15 41 16 12 1 10 3 -7 9 -36 12 -58 11 -65 0z"/>
<path d="M5612 2228 c-23 -23 -13 -38 23 -38 l35 0 0 -568 c0 -536 -1 -573
-20 -647 -50 -195 -151 -268 -390 -282 l-105 -6 2 -141 2 -141 1470 -3 1471
-2 0 143 0 144 -137 6 c-76 4 -166 13 -201 22 -161 39 -251 127 -299 292 -14
50 -17 137 -20 621 l-4 562 482 -2 482 -3 439 -630 c488 -701 531 -758 651
-871 218 -205 430 -264 1015 -281 l222 -6 0 144 0 145 -79 12 c-155 22 -297
106 -453 266 -123 125 -167 182 -553 720 l-361 501 338 3 338 2 0 25 0 25
-1744 0 c-1076 0 -1747 -4 -1751 -9 -3 -6 -14 -8 -24 -6 -11 2 -22 -2 -24 -9
-4 -9 3 -12 19 -10 13 1 26 -2 30 -7 3 -5 68 -9 145 -9 l139 0 0 -557 c0 -602
-3 -641 -53 -740 -26 -50 -89 -115 -131 -134 -50 -23 -155 78 -195 186 -35 93
-41 201 -41 732 l0 513 29 0 c35 0 48 25 21 40 -29 15 -752 14 -768 -2z m168
-12 c0 -6 5 -4 10 4 7 11 10 11 10 2 0 -7 5 -10 10 -7 6 3 10 2 10 -2 0 -5
-19 -9 -42 -10 -24 0 -37 2 -30 4 6 3 10 8 8 12 -3 4 1 8 9 8 8 0 15 -5 15
-11z m150 2 c0 -10 2 -10 8 -2 5 9 10 8 20 -2 10 -11 6 -13 -23 -12 -22 1 -35
6 -35 15 0 7 7 13 15 13 8 0 15 -6 15 -12z m101 3 c7 11 9 10 9 -3 0 -10 -7
-16 -19 -15 -12 1 -17 6 -13 16 4 12 7 12 10 2 4 -11 6 -11 13 0z m179 -3 c0
-9 4 -8 11 2 9 13 10 13 6 0 -2 -9 -17 -15 -37 -16 -31 -1 -32 0 -15 12 23 17
35 18 35 2z"/>
<path d="M4206 2214 c-5 -14 -4 -15 9 -4 17 14 19 20 6 20 -5 0 -12 -7 -15
-16z"/>
<path d="M5097 2216 c-4 -10 -1 -13 8 -9 8 3 12 9 9 14 -7 12 -11 11 -17 -5z"/>
<path d="M5476 2215 c-17 -13 -17 -15 -3 -21 22 -8 50 3 45 18 -6 18 -21 19
-42 3z"/>
<path d="M5325 2210 c-3 -6 1 -7 9 -4 18 7 21 14 7 14 -6 0 -13 -4 -16 -10z"/>
</g>
</svg>
