<?xml version="1.0" standalone="no"?>
<!DOCTYPE svg PUBLIC "-//W3C//DTD SVG 20010904//EN"
 "http://www.w3.org/TR/2001/REC-SVG-20010904/DTD/svg10.dtd">
<svg version="1.0" xmlns="http://www.w3.org/2000/svg"
 viewBox="0 0 2600.000000 2600.000000"
 preserveAspectRatio="xMidYMid meet">
<metadata>
Created by potrace 1.15, written by Peter Selinger 2001-2017
</metadata>
<g transform="translate(0.000000,2600.000000) scale(0.100000,-0.100000)"
fill="#000000" stroke="none">
<path d="M15221 21175 c-195 -43 -386 -167 -492 -322 -16 -23 -909 -1423
-1985 -3110 -1075 -1687 -1959 -3067 -1964 -3066 -4 1 -469 -721 -1032 -1604
-674 -1059 -1039 -1624 -1071 -1656 -27 -28 -75 -61 -115 -80 -63 -30 -74 -32
-177 -32 -99 0 -116 3 -168 27 -78 37 -160 117 -197 192 -62 127 -61 261 4
381 18 33 533 845 1144 1803 629 987 1109 1749 1105 1755 -89 151 -1302 2042
-1338 2088 -95 118 -259 223 -415 266 -48 13 -102 18 -205 18 -103 0 -157 -5
-205 -18 -157 -43 -315 -145 -413 -265 -54 -67 -4264 -6665 -4324 -6777 -17
-33 -44 -100 -59 -150 -22 -76 -27 -109 -27 -215 -1 -132 11 -198 57 -312 92
-227 300 -408 546 -475 62 -17 472 -18 9035 -18 l8970 0 95 32 c216 73 385
220 479 416 63 131 76 190 75 357 0 131 -3 153 -28 230 -16 47 -37 103 -49
125 -20 39 -6313 9920 -6409 10063 -122 181 -302 303 -511 346 -92 19 -239 19
-326 1z"/>
</g>
</svg>
